<svg width="745" height="404" viewBox="0 0 745 404" fill="none" xmlns="http://www.w3.org/2000/svg">
<g clip-path="url(#clip0_559_66)">
<path d="M329 354.3L336.8 329.7C360.2 329.7 380.3 329.1 397.1 327.9C414.1 326.7 428 324.8 438.8 322.2C449.8 319.4 457.9 315.7 463.1 311.1C468.5 306.3 471.2 300.5 471.2 293.7C471.2 286.1 469.8 277.3 467 267.3C464.2 257.3 460.6 246.6 456.2 235.2L479.3 227.1C481.9 233.5 484.3 240.4 486.5 247.8C488.9 255 490.9 262.2 492.5 269.4C494.1 276.4 494.9 282.9 494.9 288.9C494.9 300.7 492.2 310.8 486.8 319.2C481.4 327.4 472.4 334.1 459.8 339.3C447.2 344.5 430.2 348.3 408.8 350.7C387.6 353.1 361 354.3 329 354.3ZM329 354.3C311.2 354.3 295.5 353.1 281.9 350.7C268.5 348.5 257.3 345 248.3 340.2C239.3 335.4 232.5 329.2 227.9 321.6C223.3 313.8 221 304.4 221 293.4C221 288.4 221.4 283.3 222.2 278.1C223 272.7 224 267.3 225.2 261.9C226.6 256.5 228 251.3 229.4 246.3L251.9 252C251.1 255 250.2 258.6 249.2 262.8C248.2 266.8 247.3 270.9 246.5 275.1C245.9 279.3 245.6 283.1 245.6 286.5C245.6 296.9 248.2 305.3 253.4 311.7C258.8 317.9 268.1 322.5 281.3 325.5C294.5 328.3 313 329.7 336.8 329.7L342.8 344.7L329 354.3ZM357.8 411.3C353.6 411.3 350 409.8 347 406.8C344.2 404 342.8 400.6 342.8 396.6C342.8 392.6 344.2 389.1 347 386.1C350 383.1 353.6 381.6 357.8 381.6C361.8 381.6 365.2 383.1 368 386.1C371 389.1 372.5 392.6 372.5 396.6C372.5 400.6 371 404 368 406.8C365.2 409.8 361.8 411.3 357.8 411.3Z" fill="#B9CAFD"/>
<path d="M602.539 378.449C603.269 378.476 603.99 378.277 604.604 377.88C605.217 377.484 605.694 376.908 605.97 376.231C606.245 375.554 606.306 374.809 606.144 374.097C605.982 373.384 605.604 372.739 605.063 372.248C604.97 371.891 604.903 371.636 604.81 371.279C605.491 369.498 606.689 367.961 608.25 366.865C609.811 365.769 611.664 365.164 613.57 365.128C615.477 365.092 617.351 365.626 618.953 366.662C620.554 367.698 621.809 369.189 622.558 370.943C626.876 380.789 632.44 390.971 629.825 401.885C647.419 363.658 640.861 316.378 614.014 284.085C606.641 280.114 600.627 272.992 599 264.671C602.642 265.867 607.14 262.871 604.374 259.073C603.177 257.622 601.969 256.184 600.772 254.734C614.422 239.916 631.072 262.841 616.082 282.808C621.107 288.986 625.472 295.672 629.106 302.758C628.211 295.206 629.121 287.549 631.762 280.417C634.444 273.768 639.537 268.141 644.013 262.373C649.456 255.344 660.826 258.454 661.652 267.3C656.583 269.02 655.993 276.371 661.819 277.32C660.452 293.804 649.837 309.041 635.087 316.405C640.705 331.708 642.998 348.032 641.812 364.29C644.247 345.279 664.583 340.478 678.756 332.796C679.657 332.206 680.71 331.891 681.788 331.889C682.865 331.888 683.919 332.2 684.822 332.787C685.725 333.374 686.437 334.212 686.872 335.197C687.307 336.182 687.446 337.273 687.272 338.336C685.314 339.154 683.441 340.165 681.682 341.353C680.859 341.919 680.23 342.725 679.882 343.662C679.534 344.599 679.485 345.62 679.741 346.586C679.996 347.553 680.544 348.416 681.31 349.058C682.076 349.701 683.021 350.09 684.017 350.174C677.006 368.014 658.556 380.124 639.489 380.238C637.732 388.218 635.151 395.993 631.787 403.439L603.489 403.708C603.384 403.395 603.29 403.071 603.196 402.758C605.816 402.897 608.445 402.716 611.021 402.217C604.013 394.078 598.614 389.943 602.538 378.45L602.539 378.449Z" fill="#F2F2F2"/>
<path d="M84.806 375.449C84.0757 375.476 83.3549 375.277 82.7413 374.88C82.1276 374.484 81.6508 373.908 81.3753 373.231C81.0999 372.554 81.0391 371.809 81.2013 371.097C81.3635 370.384 81.7408 369.739 82.2821 369.248C82.3753 368.891 82.4422 368.636 82.5355 368.279C81.8538 366.498 80.6558 364.961 79.0949 363.865C77.534 362.769 75.6815 362.164 73.7746 362.128C71.8678 362.092 69.9936 362.626 68.3923 363.662C66.791 364.698 65.5356 366.189 64.7869 367.943C60.4692 377.789 54.9055 387.971 57.5203 398.885C39.9263 360.658 46.4837 313.378 73.3306 281.085C80.7043 277.114 86.7179 269.992 88.3451 261.671C84.7031 262.867 80.2051 259.871 82.9709 256.073C84.168 254.622 85.3764 253.184 86.5733 251.734C72.9232 236.916 56.2728 259.841 71.2629 279.808C66.2382 285.986 61.8731 292.672 58.2389 299.758C59.1345 292.206 58.2243 284.549 55.5832 277.417C52.901 270.768 47.8085 265.141 43.3316 259.373C37.8886 252.344 26.5186 255.454 25.6929 264.3C30.7616 266.02 31.3522 273.371 25.5265 274.32C26.893 290.804 37.5082 306.041 52.2582 313.405C46.6396 328.708 44.3471 345.032 45.5334 361.29C43.0985 342.279 22.7621 337.478 8.58904 329.796C7.68794 329.206 6.6346 328.891 5.5575 328.889C4.4804 328.888 3.42611 329.2 2.52323 329.787C1.62035 330.374 0.907923 331.212 0.472845 332.197C0.0377674 333.182 -0.101138 334.273 0.0730499 335.336C2.03152 336.154 3.90387 337.165 5.66253 338.353C6.48651 338.919 7.11543 339.725 7.4631 340.662C7.81076 341.599 7.86013 342.62 7.60445 343.586C7.34877 344.553 6.80056 345.416 6.03495 346.058C5.26934 346.701 4.32381 347.09 3.32798 347.174C10.3391 365.014 28.7895 377.124 47.8565 377.238C49.613 385.218 52.1939 392.993 55.5579 400.439L83.8563 400.708C83.9608 400.395 84.0552 400.071 84.1495 399.758C81.5285 399.897 78.9004 399.716 76.3236 399.217C83.3318 391.078 88.7311 386.943 84.8069 375.45L84.806 375.449Z" fill="#F2F2F2"/>
<path d="M206.87 49.4568C206.65 52.0968 206.436 54.7368 206.23 57.3768C206.071 60.4689 205.64 63.5409 204.94 66.5568C204.779 67.3937 204.419 68.1794 203.89 68.8468C202.95 69.9168 204.69 76.1768 203.4 76.7768C202.09 77.4008 200.683 77.7964 199.24 77.9468C199.18 77.5068 199.1 77.0668 199.01 76.6368C199 76.5868 198.99 76.5468 198.98 76.4968C198.571 74.545 197.816 72.6822 196.75 70.9968C197.001 72.9938 196.778 75.0219 196.1 76.9169C195.99 77.2269 195.86 77.5368 195.72 77.8468C190.05 77.0068 185.14 73.1768 181.27 73.2168C178.919 65.3333 177.262 57.2592 176.32 49.0868C176.07 46.9068 175.93 44.4868 177.27 42.7568C178.46 41.2168 180.49 40.6568 182.39 40.2468C188.597 38.9057 194.94 38.2982 201.29 38.4368L190.3 35.8768C193.386 35.7027 196.481 35.996 199.48 36.7468C202.43 37.6368 205.22 39.5868 206.36 42.4568C207.23 44.6468 207.05 47.1068 206.87 49.4568Z" fill="#2F2E41"/>
<path d="M144.979 381.869H134.4L129.367 341.064L144.981 341.065L144.979 381.869Z" fill="#FFB6B6"/>
<path d="M113.047 397.479C113.052 398.664 113.524 399.799 114.361 400.638C115.198 401.477 116.333 401.951 117.518 401.959H137.432L138.049 400.68L140.866 394.868L141.957 400.68L142.199 401.959H149.71L149.603 400.671L147.6 376.652L144.98 376.491L133.659 375.82L130.878 375.65V382.822C128.767 385.067 112.206 393.553 113.047 397.479Z" fill="#2F2E41"/>
<path d="M268.91 370.355L259.709 375.576L235.195 342.569L248.775 334.865L268.91 370.355Z" fill="#FFB6B6"/>
<path d="M248.849 399.688C249.434 400.72 250.405 401.478 251.548 401.794C252.692 402.111 253.914 401.962 254.947 401.378L255.994 400.788H256.003L272.269 391.55L271.75 383.69L276.418 389.198L279.861 387.24L282.946 385.487L280.218 381.499L268.62 364.518L266.259 365.68L256.074 370.679L253.588 371.904L257.12 378.137C256.396 381.141 246.184 396.683 248.849 399.688Z" fill="#2F2E41"/>
<path d="M197.476 181.572C209.868 182.017 207.965 211.374 211.833 236.907C215.284 259.688 225.379 278.926 222.003 279.744L255.416 342.014C242.35 354.15 227.019 362.198 207.857 363.333C187.063 344.225 181.36 300.254 176.586 254.753L171.374 294.711L178.323 358.121L147.582 365.556L126.319 364.037C108.297 291.344 142.393 209.133 157.072 177.898L197.476 181.572Z" fill="#2F2E41"/>
<path d="M210.62 166.382L216.249 149.495L220.27 143.866L221.878 127.784C221.878 84.3611 212.192 91.5919 212.192 91.5919L199.558 76.3198L185.185 75.8706L173.826 75.5156L164.383 91.1961C160.222 92.6647 156.518 95.1967 153.639 98.5405C150.76 101.884 148.807 105.923 147.973 110.256L145.359 123.836L155.135 153.516L154.704 151.311C150.102 159.806 151.273 161.084 155.083 167.462L155.273 169.766C155.449 171.838 156.27 173.802 157.622 175.383C158.973 176.963 160.786 178.08 162.805 178.576C203.52 188.723 207.751 206.472 212.985 199.144C214.202 197.442 209.04 177.119 210.8 177.295C215.623 177.777 210.62 166.382 210.62 166.382Z" fill="#E6E6E6"/>
<path d="M238.487 229.231C237.658 228.468 237.005 227.534 236.572 226.494C236.14 225.453 235.939 224.331 235.982 223.205C236.026 222.08 236.314 220.977 236.826 219.973C237.338 218.969 238.061 218.089 238.947 217.392L228.859 179.953L238.529 174.617L250.185 219.171C251.247 220.749 251.692 222.662 251.438 224.547C251.183 226.431 250.246 228.157 248.804 229.397C247.362 230.637 245.516 231.305 243.614 231.275C241.713 231.244 239.888 230.517 238.487 229.231Z" fill="#FFB6B6"/>
<path d="M210.709 90.5C210.709 90.5 228.662 95.9672 230.242 105.512C231.821 115.057 234.581 123.478 233.867 127.383C233.154 131.288 242.06 157.42 240.324 160.426C238.589 163.432 243.257 164.083 241.645 169.01C240.033 173.938 239.135 174.96 240.157 175.859C241.18 176.758 245.591 196.298 245.591 196.298L232.14 200.205L207.367 138.821L210.709 90.5Z" fill="#E6E6E6"/>
<path d="M139.981 229.231C140.81 228.468 141.464 227.534 141.896 226.494C142.329 225.453 142.53 224.331 142.486 223.205C142.443 222.08 142.155 220.977 141.643 219.973C141.131 218.969 140.407 218.089 139.522 217.392L149.609 179.953L139.94 174.617L128.283 219.171C127.222 220.749 126.776 222.662 127.031 224.547C127.285 226.431 128.222 228.157 129.664 229.397C131.106 230.637 132.953 231.305 134.854 231.275C136.756 231.244 138.58 230.517 139.981 229.231Z" fill="#FFB6B6"/>
<path d="M167.757 90.5C167.757 90.5 149.804 95.9672 148.224 105.512C146.645 115.057 143.885 123.478 144.598 127.383C145.312 131.288 136.406 157.42 138.142 160.426C139.877 163.432 135.208 164.083 136.82 169.01C138.432 173.938 139.331 174.96 138.309 175.859C137.286 176.758 132.875 196.298 132.875 196.298L146.326 200.205L171.099 138.821L167.757 90.5Z" fill="#E6E6E6"/>
<path d="M182.458 73.4141C194.818 73.4141 204.838 63.3943 204.838 51.0342C204.838 38.6741 194.818 28.6543 182.458 28.6543C170.098 28.6543 160.078 38.6741 160.078 51.0342C160.078 63.3943 170.098 73.4141 182.458 73.4141Z" fill="#FFB6B6"/>
<path d="M205.164 86.529C196.724 79.024 211.114 57.5875 199.874 43.2813L198.524 42.2708C197.507 44.2071 195.854 45.7345 193.844 46.5967C193.425 44.646 192.72 42.7676 191.754 41.0218C191.997 43.1843 191.803 45.3734 191.184 47.4596C190.554 47.5391 190.104 47.4483 189.944 47.1644C190.144 48.9016 184.834 49.7645 185.944 47.0622C185.952 47.035 185.962 47.0085 185.974 46.9827C184.604 49.7417 181.784 51.0248 179.334 52.5576C176.884 54.079 174.394 56.6224 174.634 59.7788C174.834 62.3335 176.784 64.241 178.744 65.5126C180.704 66.7956 182.904 67.7948 184.324 69.7818C186.714 73.1199 186.154 78.0135 184.944 82.0783C184.702 82.7274 184.307 83.3082 183.791 83.7709C183.275 84.2336 182.655 84.5644 181.984 84.7351C181.585 82.5461 180.832 80.4369 179.754 78.4903C180.006 80.7517 179.785 83.0408 179.104 85.212C177.647 85.2759 176.191 85.0432 174.827 84.528C173.462 84.0127 172.216 83.2256 171.164 82.2145L172.674 88.9134C170.244 88.4025 167.794 88.9815 165.324 89.4243C165.26 88.6663 165.157 87.9121 165.014 87.1649C164.625 84.9186 163.861 82.7538 162.754 80.7612C163.063 83.5301 162.661 86.3322 161.584 88.9021C161.464 89.1972 161.334 89.4924 161.194 89.7763C157.394 89.5038 153.604 87.2897 154.324 81.5332C154.641 79.6861 155.41 77.9462 156.564 76.4693C158.524 73.7216 148.534 70.7809 149.144 67.4656C150.054 62.5492 159.164 58.2005 158.444 53.2388C157.804 48.7426 157.93 38.5932 160.404 35.095C163.979 30.0413 160.013 19.5865 185.424 25.5235C194.877 27.7322 198.154 18.4592 212.404 46.7763C214.847 51.6312 205.964 49.9622 211.184 60.3693C216.404 70.7764 201.454 79.024 205.164 86.529Z" fill="#2F2E41"/>
<path d="M7.24119e-06 402C-0.00262084 401.449 0.710451 401.002 1.59279 401H715.398C716.283 401 717 401.448 717 402C717 402.552 716.283 403 715.398 403H1.60233C0.719994 403.002 0.00261607 402.557 7.24119e-06 402.006V402Z" fill="#CCCCCC"/>
<path d="M160.947 37.7582C160.997 37.7772 161.041 37.7962 161.091 37.8152C161.187 37.8576 161.286 37.8936 161.386 37.9228C162.029 38.1586 162.698 38.3124 163.379 38.3807C163.669 38.412 163.961 38.4275 164.253 38.4269C164.627 38.4282 165.001 38.4039 165.372 38.3542C165.785 38.3036 166.193 38.2205 166.593 38.1058C166.783 38.055 166.969 37.9946 167.153 37.9248C168.403 37.4808 169.533 36.7528 170.454 35.7982C171.375 34.8435 172.063 33.6883 172.462 32.4232V32.4169C172.504 32.2932 172.54 32.1673 172.57 32.0399C172.757 31.3321 172.852 30.6031 172.852 29.871V29.8584C172.857 28.0732 172.3 26.3317 171.261 24.8801C170.634 23.9918 169.911 23.8434 170.317 22.8276C171.612 19.5875 166.312 16.9389 163.184 18.3636C163.071 18.3528 162.958 18.3483 162.844 18.3501C160.738 18.3448 159.956 21.4557 158.701 23.207L158.737 23.2189C159.055 23.3302 159.33 23.5382 159.524 23.8136C159.718 24.0891 159.821 24.4183 159.819 24.7553C159.817 25.0922 159.709 25.4201 159.512 25.6929C159.314 25.9658 159.036 26.17 158.716 26.2771C157.88 26.5495 157.035 26.7901 156.182 26.999C153.367 30.3236 156.594 40.05 160.947 37.7582Z" fill="#2F2E41"/>
<path d="M171.016 24.038C171.131 27.0258 170.365 29.9815 168.814 32.5376C167.263 35.0937 164.994 37.1375 162.291 38.4149C161.193 38.9123 160.237 37.2844 161.343 36.7835C163.758 35.6693 165.788 33.8624 167.175 31.5922C168.561 29.322 169.242 26.6909 169.13 24.0332C169.067 22.8199 170.954 22.8283 171.016 24.038Z" fill="#B9CAFD"/>
<path d="M515.5 436L507 114H547.5L556 436H515.5ZM560.5 65.5C550.5 65.5 541.5 63.8333 533.5 60.5C525.5 56.8333 518.167 53.3333 511.5 50C504.833 46.6666 498.667 45 493 45C487 45 481.5 46.5 476.5 49.5C471.833 52.5 466.833 56.6666 461.5 62L442.5 46C450.167 36.3333 458.167 28.8333 466.5 23.5C474.833 17.8333 483.667 15 493 15C501.333 15 509 16.6666 516 20C523 23.3333 530 26.6667 537 30C544.333 33.3333 552.167 35 560.5 35C565.833 35 570.833 34.1666 575.5 32.5C580.167 30.5 585.833 27.5 592.5 23.5L607 44C596.333 53.3333 587.167 59.3333 579.5 62C572.167 64.3333 565.833 65.5 560.5 65.5Z" fill="#B9CAFD"/>
</g>
<defs>
<clipPath id="clip0_559_66">
<rect width="744.807" height="403.554" fill="white"/>
</clipPath>
</defs>
</svg>
