<svg width="783" height="702" viewBox="0 0 783 702" fill="none" xmlns="http://www.w3.org/2000/svg">
<g clip-path="url(#clip0_504_70)">
<path d="M400.508 1.5305L375.062 8.09259L61.5579 88.9391L36.1116 95.5011C23.7602 98.7012 13.1826 106.67 6.69923 117.659C0.215893 128.648 -1.64365 141.76 1.52857 154.119L111.87 581.996C115.07 594.348 123.038 604.926 134.027 611.409C145.017 617.892 158.129 619.752 170.487 616.58L170.553 616.563L534.818 522.626L534.884 522.609C547.236 519.409 557.813 511.44 564.297 500.451C570.78 489.462 572.639 476.35 569.467 463.991L459.126 36.1137C455.926 23.7623 447.958 13.1846 436.968 6.70126C425.979 0.217883 412.867 -1.6417 400.508 1.5305Z" fill="#F2F2F2"/>
<path d="M403.969 14.9455L373.83 22.7178L69.7111 101.144L39.5721 108.916C30.7764 111.195 23.2437 116.87 18.6268 124.695C14.0098 132.521 12.6856 141.859 14.9446 150.659L125.286 578.537C127.564 587.332 133.239 594.865 141.065 599.482C148.89 604.099 158.228 605.423 167.029 603.164L167.094 603.147L531.36 509.21L531.426 509.193C540.222 506.914 547.754 501.24 552.371 493.414C556.988 485.589 558.312 476.251 556.053 467.45L445.712 39.573C443.433 30.7774 437.759 23.2448 429.933 18.6278C422.108 14.0109 412.77 12.6866 403.969 14.9455Z" fill="#F6F6FF"/>
<path d="M381.214 153.503L196.941 201.023C194.883 201.554 192.698 201.246 190.868 200.166C189.037 199.086 187.71 197.322 187.18 195.264C186.649 193.206 186.958 191.022 188.038 189.191C189.118 187.36 190.881 186.034 192.939 185.503L377.212 137.983C379.269 137.454 381.452 137.764 383.281 138.844C385.11 139.924 386.436 141.686 386.966 143.743C387.497 145.8 387.189 147.984 386.11 149.814C385.032 151.644 383.271 152.971 381.214 153.503Z" fill="#F2F2F2"/>
<path d="M419.979 171.439L203.695 227.215C201.637 227.745 199.452 227.437 197.622 226.357C195.791 225.277 194.464 223.514 193.934 221.456C193.403 219.398 193.711 217.213 194.791 215.382C195.871 213.552 197.634 212.225 199.693 211.694L415.977 155.919C418.035 155.388 420.219 155.697 422.05 156.777C423.881 157.857 425.207 159.62 425.738 161.678C426.269 163.736 425.96 165.921 424.88 167.751C423.8 169.582 422.037 170.909 419.979 171.439Z" fill="#F2F2F2"/>
<path d="M411.48 270.877L227.207 318.397C226.188 318.66 225.127 318.72 224.085 318.572C223.043 318.425 222.04 318.074 221.133 317.539C220.227 317.005 219.435 316.297 218.802 315.456C218.169 314.615 217.708 313.657 217.445 312.638C217.182 311.619 217.123 310.558 217.27 309.516C217.417 308.474 217.768 307.471 218.303 306.565C218.838 305.658 219.546 304.866 220.387 304.233C221.228 303.6 222.185 303.14 223.204 302.877L407.477 255.356C408.496 255.094 409.557 255.034 410.599 255.181C411.641 255.328 412.644 255.679 413.551 256.214C414.457 256.749 415.249 257.457 415.882 258.298C416.515 259.139 416.976 260.096 417.239 261.115C417.502 262.135 417.561 263.195 417.414 264.237C417.267 265.28 416.916 266.282 416.381 267.189C415.846 268.095 415.138 268.888 414.297 269.52C413.456 270.153 412.499 270.614 411.48 270.877Z" fill="#F2F2F2"/>
<path d="M450.245 288.812L233.961 344.588C232.942 344.851 231.881 344.91 230.839 344.763C229.796 344.616 228.794 344.265 227.887 343.73C226.981 343.195 226.189 342.487 225.556 341.646C224.923 340.805 224.462 339.848 224.199 338.829C223.936 337.81 223.877 336.749 224.024 335.707C224.171 334.665 224.522 333.662 225.057 332.755C225.592 331.849 226.3 331.057 227.141 330.424C227.982 329.791 228.939 329.33 229.958 329.067L446.242 273.292C448.3 272.761 450.485 273.07 452.316 274.15C454.146 275.23 455.473 276.993 456.004 279.051C456.534 281.109 456.226 283.294 455.146 285.124C454.066 286.955 452.303 288.282 450.245 288.812Z" fill="#F2F2F2"/>
<path d="M441.748 388.25L257.475 435.77C255.417 436.299 253.234 435.99 251.404 434.91C249.575 433.829 248.249 432.067 247.719 430.01C247.188 427.953 247.496 425.769 248.575 423.939C249.654 422.109 251.416 420.782 253.472 420.25L437.745 372.729C439.804 372.199 441.988 372.507 443.819 373.587C445.649 374.667 446.976 376.43 447.507 378.488C448.038 380.547 447.729 382.731 446.649 384.562C445.569 386.393 443.806 387.719 441.748 388.25Z" fill="#F2F2F2"/>
<path d="M480.513 406.186L264.229 461.962C263.21 462.226 262.148 462.286 261.106 462.139C260.063 461.993 259.059 461.642 258.152 461.108C257.245 460.573 256.452 459.865 255.819 459.023C255.185 458.182 254.724 457.224 254.461 456.205C254.198 455.185 254.139 454.123 254.286 453.081C254.434 452.038 254.785 451.035 255.321 450.128C255.856 449.221 256.565 448.429 257.407 447.796C258.249 447.164 259.207 446.703 260.227 446.441L476.511 390.666C478.569 390.135 480.754 390.444 482.584 391.524C484.415 392.604 485.742 394.367 486.272 396.425C486.803 398.483 486.494 400.668 485.414 402.498C484.334 404.329 482.571 405.656 480.513 406.186Z" fill="#F2F2F2"/>
<path d="M165.479 249.749L100.267 266.566C99.2801 266.819 98.2332 266.671 97.3557 266.153C96.4782 265.635 95.8419 264.791 95.5864 263.804L80.6169 205.756C80.3636 204.769 80.5121 203.722 81.0298 202.845C81.5475 201.967 82.3921 201.331 83.3784 201.076L148.591 184.259C149.578 184.005 150.625 184.154 151.502 184.671C152.38 185.189 153.016 186.034 153.271 187.02L168.241 245.068C168.494 246.055 168.346 247.102 167.828 247.98C167.31 248.857 166.466 249.493 165.479 249.749Z" fill="#E6E6E6"/>
<path d="M195.749 367.122L130.537 383.939C129.55 384.192 128.503 384.044 127.625 383.526C126.748 383.008 126.111 382.164 125.856 381.177L110.886 323.129C110.633 322.142 110.782 321.095 111.299 320.218C111.817 319.34 112.662 318.704 113.648 318.449L178.86 301.632C179.847 301.378 180.894 301.527 181.772 302.044C182.649 302.562 183.285 303.407 183.541 304.393L198.51 362.441C198.764 363.428 198.615 364.475 198.098 365.353C197.58 366.23 196.735 366.866 195.749 367.122Z" fill="#E6E6E6"/>
<path d="M226.019 484.496L160.806 501.313C159.819 501.566 158.772 501.418 157.895 500.9C157.017 500.382 156.381 499.538 156.125 498.551L141.156 440.503C140.903 439.516 141.051 438.469 141.569 437.592C142.087 436.714 142.931 436.078 143.917 435.823L209.13 419.006C210.117 418.752 211.164 418.901 212.041 419.418C212.919 419.936 213.555 420.781 213.811 421.767L228.78 479.815C229.033 480.802 228.885 481.849 228.367 482.727C227.849 483.604 227.005 484.24 226.019 484.496Z" fill="#E6E6E6"/>
<path d="M654.658 109.992H278.34C265.581 110.007 253.348 115.081 244.326 124.104C235.304 133.126 230.229 145.358 230.215 158.117V599.993C230.229 612.752 235.304 624.985 244.326 634.007C253.348 643.029 265.581 648.104 278.34 648.118H654.658C667.417 648.104 679.65 643.029 688.672 634.007C697.694 624.985 702.769 612.752 702.783 599.993V158.117C702.769 145.358 697.694 133.126 688.672 124.104C679.65 115.081 667.417 110.007 654.658 109.992Z" fill="#E6E6E6"/>
<path d="M654.66 123.846H278.341C269.255 123.856 260.544 127.47 254.119 133.895C247.694 140.32 244.081 149.031 244.07 158.117V599.992C244.081 609.079 247.694 617.79 254.119 624.214C260.544 630.639 269.255 634.253 278.341 634.263H654.66C663.746 634.253 672.457 630.639 678.882 624.214C685.307 617.789 688.921 609.078 688.931 599.992V158.117C688.921 149.031 685.307 140.32 678.882 133.895C672.457 127.47 663.746 123.856 654.66 123.846Z" fill="#F6F6FF"/>
<path d="M694.194 701.88C742.713 701.88 782.044 662.548 782.044 614.03C782.044 565.512 742.713 526.18 694.194 526.18C645.676 526.18 606.344 565.512 606.344 614.03C606.344 662.548 645.676 701.88 694.194 701.88Z" fill="#C0C0E8"/>
<path d="M736.208 602.571H705.652V572.014C705.652 568.975 704.444 566.061 702.295 563.912C700.147 561.763 697.232 560.556 694.193 560.556C691.154 560.556 688.239 561.763 686.09 563.912C683.941 566.061 682.734 568.975 682.734 572.014V602.571H652.177C649.138 602.571 646.224 603.778 644.075 605.927C641.926 608.076 640.719 610.991 640.719 614.03C640.719 617.069 641.926 619.983 644.075 622.132C646.224 624.281 649.138 625.489 652.177 625.489H682.734V656.045C682.734 659.084 683.941 661.999 686.09 664.148C688.239 666.297 691.154 667.504 694.193 667.504C697.232 667.504 700.147 666.297 702.295 664.148C704.444 661.999 705.652 659.084 705.652 656.045V625.489H736.208C739.247 625.489 742.162 624.281 744.311 622.132C746.46 619.983 747.667 617.069 747.667 614.03C747.667 610.991 746.46 608.076 744.311 605.927C742.162 603.778 739.247 602.571 736.208 602.571Z" fill="#F6F6FF"/>
<path d="M598.024 366.655H407.722C406.669 366.656 405.626 366.45 404.653 366.048C403.679 365.645 402.795 365.055 402.05 364.311C401.305 363.567 400.713 362.683 400.31 361.71C399.907 360.737 399.699 359.694 399.699 358.641C399.699 357.588 399.907 356.545 400.31 355.572C400.713 354.599 401.305 353.715 402.05 352.971C402.795 352.227 403.679 351.637 404.653 351.234C405.626 350.832 406.669 350.626 407.722 350.627H598.024C600.148 350.629 602.184 351.475 603.685 352.977C605.186 354.48 606.029 356.517 606.029 358.641C606.029 360.765 605.186 362.802 603.685 364.305C602.184 365.807 600.148 366.653 598.024 366.655Z" fill="#E6E6E6"/>
<path d="M631.082 393.703H407.722C406.669 393.704 405.626 393.498 404.653 393.096C403.679 392.693 402.795 392.103 402.05 391.359C401.305 390.615 400.713 389.731 400.31 388.758C399.907 387.785 399.699 386.742 399.699 385.689C399.699 384.636 399.907 383.593 400.31 382.62C400.713 381.647 401.305 380.763 402.05 380.019C402.795 379.275 403.679 378.684 404.653 378.282C405.626 377.88 406.669 377.674 407.722 377.675H631.082C633.208 377.675 635.246 378.519 636.749 380.022C638.252 381.525 639.096 383.563 639.096 385.689C639.096 387.814 638.252 389.853 636.749 391.356C635.246 392.859 633.208 393.703 631.082 393.703Z" fill="#E6E6E6"/>
<path d="M598.024 487.869H407.722C406.669 487.87 405.626 487.664 404.653 487.262C403.679 486.859 402.795 486.269 402.05 485.525C401.305 484.781 400.713 483.897 400.31 482.924C399.907 481.951 399.699 480.908 399.699 479.855C399.699 478.802 399.907 477.759 400.31 476.786C400.713 475.813 401.305 474.929 402.05 474.185C402.795 473.441 403.679 472.851 404.653 472.448C405.626 472.046 406.669 471.84 407.722 471.841H598.024C600.149 471.841 602.188 472.685 603.691 474.188C605.194 475.691 606.038 477.729 606.038 479.855C606.038 481.98 605.194 484.019 603.691 485.522C602.188 487.025 600.149 487.869 598.024 487.869Z" fill="#E6E6E6"/>
<path d="M631.082 514.917H407.722C406.669 514.918 405.626 514.712 404.653 514.309C403.679 513.907 402.795 513.317 402.05 512.573C401.305 511.829 400.713 510.945 400.31 509.972C399.907 508.999 399.699 507.956 399.699 506.903C399.699 505.85 399.907 504.807 400.31 503.834C400.713 502.861 401.305 501.977 402.05 501.233C402.795 500.488 403.679 499.898 404.653 499.496C405.626 499.094 406.669 498.888 407.722 498.889H631.082C632.135 498.888 633.178 499.094 634.152 499.496C635.125 499.898 636.01 500.488 636.755 501.233C637.5 501.977 638.091 502.861 638.494 503.834C638.898 504.807 639.105 505.85 639.105 506.903C639.105 507.956 638.898 508.999 638.494 509.972C638.091 510.945 637.5 511.829 636.755 512.573C636.01 513.317 635.125 513.907 634.152 514.309C633.178 514.712 632.135 514.918 631.082 514.917Z" fill="#E6E6E6"/>
<path d="M365.091 405.981H297.745C296.726 405.98 295.75 405.575 295.029 404.855C294.309 404.134 293.903 403.157 293.902 402.139V342.191C293.903 341.173 294.309 340.196 295.029 339.475C295.75 338.755 296.726 338.35 297.745 338.349H365.091C366.11 338.35 367.087 338.755 367.807 339.475C368.528 340.196 368.933 341.173 368.934 342.191V402.139C368.933 403.157 368.528 404.134 367.807 404.855C367.087 405.575 366.11 405.98 365.091 405.981Z" fill="#E6E6E6"/>
<path d="M365.091 527.195H297.745C296.726 527.194 295.75 526.789 295.029 526.069C294.309 525.348 293.903 524.371 293.902 523.353V463.405C293.903 462.386 294.309 461.41 295.029 460.689C295.75 459.969 296.726 459.564 297.745 459.562H365.091C366.11 459.564 367.087 459.969 367.807 460.689C368.528 461.41 368.933 462.386 368.934 463.405V523.353C368.933 524.371 368.528 525.348 367.807 526.069C367.087 526.789 366.11 527.194 365.091 527.195Z" fill="#E6E6E6"/>
<path d="M598.234 231.721H457.932C455.807 231.721 453.768 230.876 452.265 229.373C450.762 227.87 449.918 225.832 449.918 223.706C449.918 221.581 450.762 219.543 452.265 218.04C453.768 216.537 455.807 215.692 457.932 215.692H598.234C600.359 215.692 602.398 216.537 603.901 218.04C605.404 219.543 606.248 221.581 606.248 223.706C606.248 225.832 605.404 227.87 603.901 229.373C602.398 230.876 600.359 231.721 598.234 231.721Z" fill="#CCCCCC"/>
<path d="M631.292 258.768H457.932C456.88 258.768 455.838 258.561 454.865 258.158C453.893 257.756 453.009 257.165 452.265 256.421C451.521 255.677 450.931 254.794 450.528 253.821C450.125 252.849 449.918 251.807 449.918 250.754C449.918 249.702 450.125 248.66 450.528 247.687C450.931 246.715 451.521 245.832 452.265 245.087C453.009 244.343 453.893 243.753 454.865 243.35C455.838 242.948 456.88 242.74 457.932 242.74H631.292C633.417 242.74 635.456 243.585 636.959 245.087C638.462 246.59 639.306 248.629 639.306 250.754C639.306 252.88 638.462 254.918 636.959 256.421C635.456 257.924 633.417 258.768 631.292 258.768Z" fill="#CCCCCC"/>
<path d="M426.88 291.547H297.534C296.515 291.546 295.539 291.141 294.818 290.42C294.098 289.7 293.693 288.723 293.691 287.704V186.757C293.693 185.738 294.098 184.761 294.818 184.041C295.539 183.32 296.515 182.915 297.534 182.914H426.88C427.899 182.915 428.876 183.32 429.596 184.041C430.317 184.761 430.722 185.738 430.723 186.757V287.704C430.722 288.723 430.317 289.7 429.596 290.42C428.876 291.141 427.899 291.546 426.88 291.547Z" fill="#C0C0E8"/>
</g>
<defs>
<clipPath id="clip0_504_70">
<rect width="782.044" height="701.88" fill="white"/>
</clipPath>
</defs>
</svg>
